HIERARCHY
ROOT Hips
{
	OFFSET -14.64140 90.27770 -84.91600
	CHANNELS 6 Xposition Yposition Zposition Zrotation Xrotation Yrotation
	JOINT Spine
	{
		OFFSET 0.00000 13.20850 -1.60436
		CHANNELS 3 Zrotation Xrotation Yrotation
		JOINT Spine1
		{
			OFFSET 0.00000 8.61716 0.00000
			CHANNELS 3 Zrotation Xrotation Yrotation
			JOINT Spine2
			{
				OFFSET 0.00000 8.61717 0.00000
				CHANNELS 3 Zrotation Xrotation Yrotation
				JOINT Spine3
				{
					OFFSET 0.00000 8.61717 0.00000
					CHANNELS 3 Zrotation Xrotation Yrotation
					JOINT Neck
					{
						OFFSET 0.00000 11.07920 1.10792
						CHANNELS 3 Zrotation Xrotation Yrotation
						JOINT Neck1
						{
							OFFSET 0.00000 7.08032 0.00000
							CHANNELS 3 Zrotation Xrotation Yrotation
							JOINT Head
							{
								OFFSET 0.00000 7.08031 0.00000
								CHANNELS 3 Zrotation Xrotation Yrotation
								End site
								{
									OFFSET 0.00000 0.00000 0.00000
								}
							}
						}
					}
					JOINT RightShoulder
					{
						OFFSET -0.01000 7.91373 5.19711
						CHANNELS 3 Zrotation Xrotation Yrotation
						JOINT RightArm
						{
							OFFSET -18.41580 0.00000 0.00000
							CHANNELS 3 Zrotation Xrotation Yrotation
							JOINT RightForeArm
							{
								OFFSET -29.11090 0.00000 0.00000
								CHANNELS 3 Zrotation Xrotation Yrotation
								JOINT RightHand
								{
									OFFSET -24.65040 0.00000 0.00000
									CHANNELS 3 Zrotation Xrotation Yrotation
									JOINT RightHandThumb1
									{
										OFFSET -5.35114 -0.85590 3.97906
										CHANNELS 3 Zrotation Xrotation Yrotation
										JOINT RightHandThumb2
										{
											OFFSET -4.52789 0.00000 0.00000
											CHANNELS 3 Zrotation Xrotation Yrotation
											JOINT RightHandThumb3
											{
												OFFSET -2.46976 0.00000 0.00000
												CHANNELS 3 Zrotation Xrotation Yrotation
												End site
												{
													OFFSET 0.00000 0.00000 0.00000
												}
											}
										}
									}
									JOINT RightHandIndex1
									{
										OFFSET -14.26970 0.00000 2.88139
										CHANNELS 3 Zrotation Xrotation Yrotation
										JOINT RightHandIndex2
										{
											OFFSET -5.48836 0.00000 0.00000
											CHANNELS 3 Zrotation Xrotation Yrotation
											JOINT RightHandIndex3
											{
												OFFSET -3.01859 0.00000 0.00000
												CHANNELS 3 Zrotation Xrotation Yrotation
												End site
												{
													OFFSET 0.00000 0.00000 0.00000
												}
											}
										}
									}
									JOINT RightHandMiddle1
									{
										OFFSET -14.26970 0.00000 -0.09147
										CHANNELS 3 Zrotation Xrotation Yrotation
										JOINT RightHandMiddle2
										{
											OFFSET -6.17441 0.00000 0.00000
											CHANNELS 3 Zrotation Xrotation Yrotation
											JOINT RightHandMiddle3
											{
												OFFSET -3.56743 0.00000 0.00000
												CHANNELS 3 Zrotation Xrotation Yrotation
												End site
												{
													OFFSET 0.00000 0.00000 0.00000
												}
											}
										}
									}
									JOINT RightHandRing1
									{
										OFFSET -12.69180 0.00000 -3.06433
										CHANNELS 3 Zrotation Xrotation Yrotation
										JOINT RightHandRing2
										{
											OFFSET -5.62556 0.00000 0.00000
											CHANNELS 3 Zrotation Xrotation Yrotation
											JOINT RightHandRing3
											{
												OFFSET -3.56744 0.00000 0.00000
												CHANNELS 3 Zrotation Xrotation Yrotation
												End site
												{
													OFFSET 0.00000 0.00000 0.00000
												}
											}
										}
									}
									JOINT RightHandPinky1
									{
										OFFSET -11.11390 0.00000 -6.03719
										CHANNELS 3 Zrotation Xrotation Yrotation
										JOINT RightHandPinky2
										{
											OFFSET -4.52789 0.00000 0.00000
											CHANNELS 3 Zrotation Xrotation Yrotation
											JOINT RightHandPinky3
											{
												OFFSET -2.46976 0.00000 0.00000
												CHANNELS 3 Zrotation Xrotation Yrotation
												End site
												{
													OFFSET 0.00000 0.00000 0.00000
												}
											}
										}
									}
								}
							}
						}
					}
					JOINT LeftShoulder
					{
						OFFSET 0.01000 7.91373 5.19711
						CHANNELS 3 Zrotation Xrotation Yrotation
						JOINT LeftArm
						{
							OFFSET 18.41580 0.00000 0.00000
							CHANNELS 3 Zrotation Xrotation Yrotation
							JOINT LeftForeArm
							{
								OFFSET 29.11090 0.00000 0.00000
								CHANNELS 3 Zrotation Xrotation Yrotation
								JOINT LeftHand
								{
									OFFSET 24.65040 0.00000 0.00000
									CHANNELS 3 Zrotation Xrotation Yrotation
									JOINT LeftHandThumb1
									{
										OFFSET 5.35114 -0.85590 3.97906
										CHANNELS 3 Zrotation Xrotation Yrotation
										JOINT LeftHandThumb2
										{
											OFFSET 4.52789 0.00000 0.00000
											CHANNELS 3 Zrotation Xrotation Yrotation
											JOINT LeftHandThumb3
											{
												OFFSET 2.46977 0.00000 0.00000
												CHANNELS 3 Zrotation Xrotation Yrotation
												End site
												{
													OFFSET 0.00000 0.00000 0.00000
												}
											}
										}
									}
									JOINT LeftHandIndex1
									{
										OFFSET 14.26970 0.00000 2.88139
										CHANNELS 3 Zrotation Xrotation Yrotation
										JOINT LeftHandIndex2
										{
											OFFSET 5.48836 0.00000 0.00000
											CHANNELS 3 Zrotation Xrotation Yrotation
											JOINT LeftHandIndex3
											{
												OFFSET 3.01859 0.00000 0.00000
												CHANNELS 3 Zrotation Xrotation Yrotation
												End site
												{
													OFFSET 0.00000 0.00000 0.00000
												}
											}
										}
									}
									JOINT LeftHandMiddle1
									{
										OFFSET 14.26970 0.00000 -0.09147
										CHANNELS 3 Zrotation Xrotation Yrotation
										JOINT LeftHandMiddle2
										{
											OFFSET 6.17440 0.00000 0.00000
											CHANNELS 3 Zrotation Xrotation Yrotation
											JOINT LeftHandMiddle3
											{
												OFFSET 3.56744 0.00000 0.00000
												CHANNELS 3 Zrotation Xrotation Yrotation
												End site
												{
													OFFSET 0.00000 0.00000 0.00000
												}
											}
										}
									}
									JOINT LeftHandRing1
									{
										OFFSET 12.69180 0.00000 -3.06433
										CHANNELS 3 Zrotation Xrotation Yrotation
										JOINT LeftHandRing2
										{
											OFFSET 5.62556 0.00000 0.00000
											CHANNELS 3 Zrotation Xrotation Yrotation
											JOINT LeftHandRing3
											{
												OFFSET 3.56744 0.00000 0.00000
												CHANNELS 3 Zrotation Xrotation Yrotation
												End site
												{
													OFFSET 0.00000 0.00000 0.00000
												}
											}
										}
									}
									JOINT LeftHandPinky1
									{
										OFFSET 11.11390 0.00000 -6.03719
										CHANNELS 3 Zrotation Xrotation Yrotation
										JOINT LeftHandPinky2
										{
											OFFSET 4.52789 0.00000 0.00000
											CHANNELS 3 Zrotation Xrotation Yrotation
											JOINT LeftHandPinky3
											{
												OFFSET 2.46976 0.00000 0.00000
												CHANNELS 3 Zrotation Xrotation Yrotation
												End site
												{
													OFFSET 0.00000 0.00000 0.00000
												}
											}
										}
									}
								}
							}
						}
					}
					JOINT pCube4
					{
						OFFSET 0.00000 10.91090 1.10792
						CHANNELS 3 Zrotation Xrotation Yrotation
						End site
						{
							OFFSET 0.00000 0.00000 0.00000
						}
					}
				}
			}
		}
	}
	JOINT RightUpLeg
	{
		OFFSET -9.98441 0.00000 0.00000
		CHANNELS 3 Zrotation Xrotation Yrotation
		JOINT RightLeg
		{
			OFFSET 0.00000 -42.11790 0.00000
			CHANNELS 3 Zrotation Xrotation Yrotation
			JOINT RightFoot
			{
				OFFSET 0.00000 -45.00020 -0.00001
				CHANNELS 3 Zrotation Xrotation Yrotation
				JOINT RightForeFoot
				{
					OFFSET 0.00000 -3.74820 0.00000
					CHANNELS 3 Zrotation Xrotation Yrotation
					JOINT RightToeBase
					{
						OFFSET 0.00000 0.06325 14.43120
						CHANNELS 3 Zrotation Xrotation Yrotation
						End site
						{
							OFFSET 0.00000 0.00000 0.00000
						}
					}
				}
			}
		}
	}
	JOINT LeftUpLeg
	{
		OFFSET 9.98441 0.00000 0.00000
		CHANNELS 3 Zrotation Xrotation Yrotation
		JOINT LeftLeg
		{
			OFFSET 0.00000 -42.11800 0.00000
			CHANNELS 3 Zrotation Xrotation Yrotation
			JOINT LeftFoot
			{
				OFFSET 0.00000 -45.00070 0.00000
				CHANNELS 3 Zrotation Xrotation Yrotation
				JOINT LeftForeFoot
				{
					OFFSET 0.00000 -3.74824 0.00000
					CHANNELS 3 Zrotation Xrotation Yrotation
					JOINT LeftToeBase
					{
						OFFSET 0.00000 0.06325 14.43110
						CHANNELS 3 Zrotation Xrotation Yrotation
						End site
						{
							OFFSET 0.00000 0.00000 0.00000
						}
					}
				}
			}
		}
	}
}
MOTION
Frames: 4
Frame Time: 0.050000
-0.04701189578236914 0.004613793237702566 0.00843662700032747 -0.005149522468093863 0.0052597145809146015 -0.0037506694110316175 5.22386393053089 3.4247690163915783 -2.3077394995037466 -0.8066715236298897 3.465939554664417 0.42965770432306205 -0.584227028642234 -0.8362024827976107 1.0154031657126832 -0.7947750949997779 -0.5237074268264154 -0.18585032617611044 -0.2519013276823238 11.224032749066073 -0.5382755007939128 0.018665593063474237 -1.0461950400306177 -1.2973665396187604 0.24314293327454758 -17.797137953314756 -0.08752561090323939 -10.923872800022188 3.893934542692574 -17.33106519435979 81.81644214727483 -4.60543454178931 12.961428751978556 31.2813120697633 1.7079614720764915 95.14285152164885 9.290607241553802 -0.43784238388965524 -3.9628583634117245 4.561846173709539 -0.1073474958256391 -1.5689752852954006 0.009409271480554718 0.01906064925820655 -56.283432092082265 -0.022232845175021873 0.02742205046799705 -56.22296115283442 -38.7677598609844 0.03897292585916935 -0.019875068766704786 -0.02673158209415221 0.01821471721948556 -0.04567672915331991 -0.022410155014774457 -0.015592476021048882 0.006785566374778347 -36.68870398356213 0.021644860603249987 0.040739924813835156 0.04551719697050161 -0.042752817408163564 -0.03459176506638321 0.04948504818483673 -0.0008825994961309814 0.03208975152653208 -19.748733262984583 -0.010987534464788801 0.006208284516881757 -0.007882406022794532 -0.010608414975863832 -0.035940851813340044 0.015486577046938349 -0.03187214316856772 0.026575658669478166 24.101228068310082 -0.03521309459035461 0.037105391098483057 28.9050229149263 0.01939229167782007 0.025696320296982558 28.882211031944315 0.024203069430902138 -0.010133579583535383 10.098829857118881 2.395815438922332 14.25509809025839 -77.1877167881251 18.429798193446604 -13.099695693432208 -9.326280669660157 12.275632267568529 -56.34572479573044 -18.96610869037938 -2.3936836084615805 3.2069787595541825 -0.45363240823849604 0.048465885591752605 -8.145179988112393 0.014316282467193972 -0.01393678568455733 44.55853283794622 0.04120092584422415 -0.024399386886792107 44.540975039140065 12.462163859671618 -0.030414901113694225 -0.0009203777984367883 -0.03164714154817788 -0.016751290035759998 -0.005664122875405194 0.01752427387895704 -0.027167922847392122 0.03592389143196942 11.086928102973618 -0.0016986017512794673 0.048424593558693274 -0.039575868027960155 -0.04586629691113944 -0.0032187115321580906 0.013058699508966855 -0.01262480791926406 -0.0020409729032629226 4.753586220940198 -0.030287761040058713 -0.03417247112495056 -0.03056257574110087 -0.007271287648934986 -0.018724461455871318 -0.015188715285723152 -0.021552173374116638 0.04236215070776507 -5.619903484374323 -0.014344937524132972 -0.006478251509013786 -6.694130227726373 -0.022349399052628182 0.01199102656534835 -6.693121575766569 -0.01194361448699409 0.01606912202459474 -0.04821858873331652 0.016010113419110003 -0.048316122355934694 8.089299706238958 3.4887492947778513 -19.257898821026814 -0.034755459212941084 10.384094513219937 0.03530143391865004 -5.668762828533614 -15.612263296327551 3.1864489112000407 -0.017172222892156648 -0.03812933989642418 -0.024310171195708434 0.033378993058664284 4.655378047770476 -0.017348973874230105 12.442863757640941 -8.209440863347607 6.8341198805206025 -0.00856821261457464 46.407057853661186 -0.044568302593286556 -4.29960162663863 -14.712425198710017 -3.836316347725062 0.02412503344919967 0.030280365398086064 -0.0036072027837200883 0.0027880088301923127 -10.768736128341445 0.014496894528820187 
0.020117474962737438 -0.0070574782324157054 -0.005027459291840477 0.03526809167520902 -0.0028560586124741676 -0.014978223914717535 5.25539431014981 3.2984611492022218 -2.231947912961575 -0.8182651672602259 3.490521061284899 0.4367523652523147 -0.5591028661872167 -0.8971560760902627 1.2692434647833861 -0.7733836848048414 -0.5263477805964681 -0.1780468645192157 -0.19248202329611988 11.219825634598914 -0.7916702478903676 0.020415842082272845 -1.1070908316806867 -2.0313410508661196 0.35551494572180037 -17.80341179593656 -0.1752886906776608 -10.914256220763209 3.890472453415623 -17.387626306904604 81.23154199386519 -4.030973472318173 13.208081056447707 30.669723601897214 2.2497094867010325 94.9746344515494 9.622349988275833 -0.5007383427635849 -4.042271942896168 4.546651053655684 -0.12612384071805013 -1.5871357185197326 -0.012654163518618335 -0.00781360873596279 -56.25562133895213 0.0016699672684086196 -0.013778712535277444 -56.27853835177138 -38.75699323339913 0.025814798505627103 -0.02878596671826769 0.041924227405460014 0.0257458047984005 0.015836744003274162 -0.010326675497914491 -0.008305865358811332 -0.01433525673462801 -36.73314195459249 -0.02844603353272522 0.023108039646448895 0.00880021827266107 -0.04563112942601543 0.027136249385715537 0.007884437130829664 -0.030497736367806918 0.029242103898239495 -19.78732446799891 -0.01708438457404192 -0.020531310234762037 0.011679651670131993 -0.027059133704110297 0.005495317906327065 0.012371917487508103 0.010233826166951196 -0.03757321878056642 24.071388101474604 0.02535067788347267 0.003421034687003566 28.87321182795612 -0.028414495700832546 -0.02761407425571229 28.904883464640204 0.04885127616761826 0.01563579504080446 9.735766234119511 2.411266779221588 14.3984504213482 -77.3155108312972 18.472953629690313 -11.634740340074101 -7.1484314010050305 11.852462542931798 -53.12610630993974 -19.28951145975229 -1.958800019564239 3.0414408656390464 -0.4798734125739511 0.06727563908752483 -8.0767473900717 -0.012751949535347492 -0.009490691482659614 44.58682007367771 0.03561340022512337 -0.0202816297018693 44.59246559254195 12.487650795365207 -0.015084264563388069 -0.04056743375455467 -0.04740515879347302 -0.025979158448549537 -0.006742751405182527 -0.00717947028881113 -0.04478856634316437 0.027585707230176452 11.132636750533525 -0.023573585752691424 0.019587007829820462 -0.020387287060064766 0.024258813141978485 -0.03272294027168686 0.037542530791504214 -0.03106464405154274 -0.0304336079898549 4.775667510747349 -0.017892022833884167 0.0045130938066554925 -0.02487527061191343 -0.04204343880967476 0.01765102715842934 -0.010325629696804721 0.02878288349656695 0.03488735612530945 -5.583790350382137 -0.01821668156434422 0.03853231069387442 -6.7514745605954625 -0.03778204578530384 -0.042155858930605125 -6.757994390460917 -0.023890041958021524 -0.007375929768917288 0.030318307937852753 -0.005896708092794533 0.012173363749773578 8.005950987907898 3.5059414959081883 -19.17810170363846 0.0476210306275398 10.398327095844412 0.050413172569442985 -5.626859584847926 -15.640901984277031 3.1493987130696675 -0.008299985334170012 0.03894841839840025 -0.005849940336536003 0.04366084093367064 4.7013810625770756 0.02750457136674341 12.43894683967163 -8.202488760688084 6.898238115368591 0.015883624570836495 46.34736341004173 -0.01283179576834434 -4.355858824166312 -14.719957493659175 -3.819240611118912 -0.009287740134488865 0.00815089165365148 -0.010468987853607854 0.02110620957135785 -10.745749617742268 0.02586997047181544 
0.03874604287368597 0.021879561514076936 0.023463381317048223 0.017635197068818078 0.00337845882350305 0.03124114148954802 5.294547544422862 3.2815346390257782 -2.2883227086967186 -0.8141017303307342 3.4713706708001713 0.41869132674438253 -0.5447136771900466 -0.8915310666169494 1.3610694503934577 -0.7504139176358526 -0.5842226565109728 -0.17910658556053524 -0.02348061021751107 11.181952328784632 -1.0963474653983023 0.004787114467372837 -1.1917823339189242 -2.7331165949225884 0.46516183805156636 -17.91111111194863 -0.19615498335731302 -10.80311313082547 3.867282943098543 -17.470391774727826 80.88144376266759 -3.5936713465589154 13.004797027660615 30.271482718239803 2.8014812482867795 94.73302982902551 10.010416685317791 -0.5119654204701675 -4.101657801067022 4.495239209408488 -0.0968482565134841 -1.6004960824762564 -0.008677174244011118 0.028339544529527135 -56.28003952385503 -0.014835575366302804 -0.030449385166968088 -56.203047419745225 -38.7314572850481 -0.0024715192288960216 0.02842486094190422 -0.016076672410959635 0.008334018926013159 0.0002291822040482542 -0.0072141418287430745 0.0025862979658246668 0.03228654677921608 -36.705522247503495 0.008920528770852676 0.04928285584662544 -0.02380394939727466 -0.001819520290719199 0.0018848674871463035 -0.01695311296036866 0.02599856694839996 -0.02389591435952027 -19.771475663243645 0.008234485798968369 -0.01019696030881801 0.020822457376782972 -0.012654049256122755 -0.018119642455645527 -0.03385306244163644 0.03256181864050726 0.004679738366177765 24.074132200396058 -0.0439028336707984 0.02129226209874936 28.915037966791225 0.016049991486384845 -0.041232823970923295 28.879688640971864 0.011057582422725821 0.02126644960991502 9.373290567922883 2.2581564453904495 14.392461803978883 -77.44106293243053 18.39480809271493 -10.536042959798008 -5.7684563321880775 11.512604382064021 -51.07852564801777 -19.440482600117996 -1.6506696545190866 2.853747515741543 -0.42534187552602487 0.09146057880519393 -8.147560135639788 -0.0012678858817703053 0.013998635986275512 44.54606949759059 0.005806258373613822 0.020058988448267482 44.61235579803339 12.43221778816742 0.030873089013444443 0.01447503750486856 0.03864927672755861 0.025663726700839308 -0.032421920817568596 0.03941600749255712 0.031706167448759336 -0.016483332910042635 11.14257346209032 -0.0376698972030731 0.024093218229233552 0.04470750710721003 0.040169503873727225 0.004993016275984478 0.048707796751878966 -0.04213159099606611 0.03101157836065159 4.797939096314894 -0.04781434933693631 -0.04678525557743016 0.0409601264820275 -0.033641939564290436 -0.012587351402558327 0.013098320471827924 0.0019596463015528563 0.03636736441615948 -5.644330058088652 -0.013221147357565985 0.0036694016107809728 -6.7707587774702205 -0.03086493675444464 0.03341808721433306 -6.732899273693214 0.014064959056277549 0.028239612099498705 -0.03080064967976225 -0.046581320937701884 -0.0015242535372482634 8.015138446120945 3.4899614350160095 -19.257730048622907 -0.0010570457242781025 10.412489453535853 0.055603000116368304 -5.576682759244502 -15.62260964682726 3.171591672599089 -0.018854816321762908 -0.02304411271353442 -0.015599147447304926 -0.011772602896728854 4.699563006775002 0.027342523086533312 12.498204271260088 -8.188987818445147 6.863126110778761 0.04313847030105765 46.413332787209974 0.027495544652186798 -4.335205624404475 -14.726990978848827 -3.8494548315910757 0.03872547890495737 -0.0061788150985880785 0.0014943524037072298 0.023525645307325215 -10.761699287430513 -0.03240703421023344 
0.02371879959761995 0.0180718923768187 -0.03614834777390323 0.004926700959383232 -0.015176135999886355 -0.02280567626316138 5.255249686180204 3.125990740443762 -2.2766880595198864 -0.7858340183408603 3.3959612885338175 0.393964666257412 -0.6295704968165384 -0.8382426775005613 1.373965246711323 -0.7267712360995324 -0.5217639267385268 -0.12659124676172082 0.09020512755856015 11.098105013594932 -1.3295259927719625 0.05583969814597689 -1.223042734519028 -3.3178934014306147 0.6264532422068855 -18.075599956227492 -0.34520679640441754 -10.698719488194826 3.8360051889460443 -17.573516047563867 80.54578103416767 -3.178848872262065 12.636415152735472 29.383819684661027 3.295446043335091 95.17522146955028 10.512348944127256 -0.47041845413488925 -4.331324483164009 4.515431285000495 -0.11040569070200526 -1.5578427539080613 0.015795908021432062 0.02833816404200994 -56.27178780801524 -0.03925233178925916 -0.027901515265269867 -56.27326461853945 -38.76190994694111 0.035914589391067765 -0.007127217208187798 -0.022579383341130462 0.010661187142610913 -0.034344563657625296 -0.027134126759300447 -0.01789118339048791 -0.041943883082795196 -36.678435777474235 0.04717512253162621 -0.007817456233028295 -0.032895042937883597 -0.041822294410529634 0.01734743023901486 -0.03659750424065061 0.03456655152351976 -0.0013070239364327974 -19.714124011259052 -0.03387978329652375 -0.04360803286378213 0.004435836228841497 -0.010580985793300784 -0.014905412277489993 -0.03495235066546396 0.037211335420362035 0.032395728439663304 24.07006704690643 -0.0012839155968534099 0.012764079316247559 28.888066327129653 0.00546574999333892 -0.014654310512034193 28.909999838109282 -0.028828167216975144 -0.0440760466395525 9.111914850233084 2.2489971197562424 14.450253224763122 -77.54592730377212 18.351518614770722 -9.640514275771075 -4.903600963084394 11.363749561685179 -49.862120986938194 -19.730245150865468 -1.6684865014175634 2.845045241717301 -0.46831481158504923 0.11121598328418111 -8.135184684173362 0.039040761662072015 -0.0038928690364579445 44.57878436946344 -0.011441146566232649 -0.03796512251434915 44.52892997812308 12.417705939400362 0.049812232771785106 -0.001241808262037844 0.03456178353227845 0.0440127028212836 0.03206773176189107 -0.04394749782501195 -0.038497233496138476 -0.006995643850273317 11.139425132413772 -0.03205183309736651 -0.015736293171031646 0.033430665994090544 -0.03233727357295236 -0.0017447868179469772 -0.030522773515172665 0.017357719323027578 -0.022851417395063512 4.793424121032982 0.002999150716002894 -0.007682888828561695 0.03199143474609062 -0.020849231650511516 0.0210987815711554 -0.012753572688803888 0.026772530910094298 -0.019638120131385856 -5.583142603396435 -0.01997826440885639 -0.026255486452589124 -6.684009120281352 -0.015705328870099344 0.025390931086582788 -6.751782196589435 0.003790760807250985 -0.02579759180134973 0.04983861414287831 -0.0042492371983566275 0.01824221814258108 8.074730722100233 3.493040235225396 -19.17849597041403 0.006924877680544715 10.438890894223768 -0.006277336206941684 -5.57463674616511 -15.662320247135172 3.212757354163456 0.03432570266670998 -0.018121040349433966 0.0035855911822032815 -0.0014244761241326042 4.7285757618099025 -0.00153055402332956 12.450455478232888 -8.258845646090682 6.846822387740357 0.03323525685376466 46.406742926125546 0.02603505724685554 -4.375107499528978 -14.722125770897648 -3.8369824770506376 -0.014119218224992302 -0.0021319126969883482 0.037818170819235664 -0.03738789067089538 -10.753071505387531 -0.020264694809036223 
